<svg xmlns="http://www.w3.org/2000/svg" xmlns="http://www.w3.org/2000/svg" viewBox="0 0 400 240" style="background:#f8f9fa;border-radius:12px">
  <text x="200" y="18" text-anchor="middle" font-size="14" font-family="sans-serif" fill="#555">用数对确定位置</text>
  <rect x="60" y="30" width="55" height="35" fill="#e8f4f8" stroke="#aaa" stroke-width="0.5"/><rect x="116" y="30" width="55" height="35" fill="#e8f4f8" stroke="#aaa" stroke-width="0.5"/><rect x="172" y="30" width="55" height="35" fill="#e8f4f8" stroke="#aaa" stroke-width="0.5"/><rect x="228" y="30" width="55" height="35" fill="#e8f4f8" stroke="#aaa" stroke-width="0.5"/><rect x="284" y="30" width="55" height="35" fill="#e8f4f8" stroke="#aaa" stroke-width="0.5"/><rect x="60" y="66" width="55" height="35" fill="#e8f4f8" stroke="#aaa" stroke-width="0.5"/><rect x="116" y="66" width="55" height="35" fill="#e8f4f8" stroke="#aaa" stroke-width="0.5"/><rect x="172" y="66" width="55" height="35" fill="#f8d7da" stroke="#aaa" stroke-width="0.5"/><rect x="228" y="66" width="55" height="35" fill="#e8f4f8" stroke="#aaa" stroke-width="0.5"/><rect x="284" y="66" width="55" height="35" fill="#e8f4f8" stroke="#aaa" stroke-width="0.5"/><rect x="60" y="102" width="55" height="35" fill="#e8f4f8" stroke="#aaa" stroke-width="0.5"/><rect x="116" y="102" width="55" height="35" fill="#e8f4f8" stroke="#aaa" stroke-width="0.5"/><rect x="172" y="102" width="55" height="35" fill="#e8f4f8" stroke="#aaa" stroke-width="0.5"/><rect x="228" y="102" width="55" height="35" fill="#e8f4f8" stroke="#aaa" stroke-width="0.5"/><rect x="284" y="102" width="55" height="35" fill="#e8f4f8" stroke="#aaa" stroke-width="0.5"/><rect x="60" y="138" width="55" height="35" fill="#e8f4f8" stroke="#aaa" stroke-width="0.5"/><rect x="116" y="138" width="55" height="35" fill="#e8f4f8" stroke="#aaa" stroke-width="0.5"/><rect x="172" y="138" width="55" height="35" fill="#e8f4f8" stroke="#aaa" stroke-width="0.5"/><rect x="228" y="138" width="55" height="35" fill="#e8f4f8" stroke="#aaa" stroke-width="0.5"/><rect x="284" y="138" width="55" height="35" fill="#e8f4f8" stroke="#aaa" stroke-width="0.5"/><rect x="60" y="174" width="55" height="35" fill="#e8f4f8" stroke="#aaa" stroke-width="0.5"/><rect x="116" y="174" width="55" height="35" fill="#e8f4f8" stroke="#aaa" stroke-width="0.5"/><rect x="172" y="174" width="55" height="35" fill="#e8f4f8" stroke="#aaa" stroke-width="0.5"/><rect x="228" y="174" width="55" height="35" fill="#e8f4f8" stroke="#aaa" stroke-width="0.5"/><rect x="284" y="174" width="55" height="35" fill="#e8f4f8" stroke="#aaa" stroke-width="0.5"/>
  <text x="200" y="225" text-anchor="middle" font-size="13" font-family="sans-serif" fill="#333" font-weight="bold">(3,2)</text>
</svg>