<svg xmlns="http://www.w3.org/2000/svg" xmlns="http://www.w3.org/2000/svg" viewBox="0 0 400 240" style="background:#f8f9fa;border-radius:12px">
  <text x="200" y="18" text-anchor="middle" font-size="14" font-family="sans-serif" fill="#555">小数乘法</text>
  <rect x="60" y="30" width="27" height="17" fill="#f8d7da" stroke="#aaa" stroke-width="0.5"/><rect x="88" y="30" width="27" height="17" fill="#f8d7da" stroke="#aaa" stroke-width="0.5"/><rect x="116" y="30" width="27" height="17" fill="#e8f4f8" stroke="#aaa" stroke-width="0.5"/><rect x="144" y="30" width="27" height="17" fill="#e8f4f8" stroke="#aaa" stroke-width="0.5"/><rect x="172" y="30" width="27" height="17" fill="#e8f4f8" stroke="#aaa" stroke-width="0.5"/><rect x="200" y="30" width="27" height="17" fill="#e8f4f8" stroke="#aaa" stroke-width="0.5"/><rect x="228" y="30" width="27" height="17" fill="#e8f4f8" stroke="#aaa" stroke-width="0.5"/><rect x="256" y="30" width="27" height="17" fill="#e8f4f8" stroke="#aaa" stroke-width="0.5"/><rect x="284" y="30" width="27" height="17" fill="#e8f4f8" stroke="#aaa" stroke-width="0.5"/><rect x="312" y="30" width="27" height="17" fill="#e8f4f8" stroke="#aaa" stroke-width="0.5"/><rect x="60" y="48" width="27" height="17" fill="#f8d7da" stroke="#aaa" stroke-width="0.5"/><rect x="88" y="48" width="27" height="17" fill="#f8d7da" stroke="#aaa" stroke-width="0.5"/><rect x="116" y="48" width="27" height="17" fill="#e8f4f8" stroke="#aaa" stroke-width="0.5"/><rect x="144" y="48" width="27" height="17" fill="#e8f4f8" stroke="#aaa" stroke-width="0.5"/><rect x="172" y="48" width="27" height="17" fill="#e8f4f8" stroke="#aaa" stroke-width="0.5"/><rect x="200" y="48" width="27" height="17" fill="#e8f4f8" stroke="#aaa" stroke-width="0.5"/><rect x="228" y="48" width="27" height="17" fill="#e8f4f8" stroke="#aaa" stroke-width="0.5"/><rect x="256" y="48" width="27" height="17" fill="#e8f4f8" stroke="#aaa" stroke-width="0.5"/><rect x="284" y="48" width="27" height="17" fill="#e8f4f8" stroke="#aaa" stroke-width="0.5"/><rect x="312" y="48" width="27" height="17" fill="#e8f4f8" stroke="#aaa" stroke-width="0.5"/><rect x="60" y="66" width="27" height="17" fill="#e8f4f8" stroke="#aaa" stroke-width="0.5"/><rect x="88" y="66" width="27" height="17" fill="#e8f4f8" stroke="#aaa" stroke-width="0.5"/><rect x="116" y="66" width="27" height="17" fill="#e8f4f8" stroke="#aaa" stroke-width="0.5"/><rect x="144" y="66" width="27" height="17" fill="#e8f4f8" stroke="#aaa" stroke-width="0.5"/><rect x="172" y="66" width="27" height="17" fill="#e8f4f8" stroke="#aaa" stroke-width="0.5"/><rect x="200" y="66" width="27" height="17" fill="#e8f4f8" stroke="#aaa" stroke-width="0.5"/><rect x="228" y="66" width="27" height="17" fill="#e8f4f8" stroke="#aaa" stroke-width="0.5"/><rect x="256" y="66" width="27" height="17" fill="#e8f4f8" stroke="#aaa" stroke-width="0.5"/><rect x="284" y="66" width="27" height="17" fill="#e8f4f8" stroke="#aaa" stroke-width="0.5"/><rect x="312" y="66" width="27" height="17" fill="#e8f4f8" stroke="#aaa" stroke-width="0.5"/><rect x="60" y="84" width="27" height="17" fill="#e8f4f8" stroke="#aaa" stroke-width="0.5"/><rect x="88" y="84" width="27" height="17" fill="#e8f4f8" stroke="#aaa" stroke-width="0.5"/><rect x="116" y="84" width="27" height="17" fill="#e8f4f8" stroke="#aaa" stroke-width="0.5"/><rect x="144" y="84" width="27" height="17" fill="#e8f4f8" stroke="#aaa" stroke-width="0.5"/><rect x="172" y="84" width="27" height="17" fill="#e8f4f8" stroke="#aaa" stroke-width="0.5"/><rect x="200" y="84" width="27" height="17" fill="#e8f4f8" stroke="#aaa" stroke-width="0.5"/><rect x="228" y="84" width="27" height="17" fill="#e8f4f8" stroke="#aaa" stroke-width="0.5"/><rect x="256" y="84" width="27" height="17" fill="#e8f4f8" stroke="#aaa" stroke-width="0.5"/><rect x="284" y="84" width="27" height="17" fill="#e8f4f8" stroke="#aaa" stroke-width="0.5"/><rect x="312" y="84" width="27" height="17" fill="#e8f4f8" stroke="#aaa" stroke-width="0.5"/><rect x="60" y="102" width="27" height="17" fill="#e8f4f8" stroke="#aaa" stroke-width="0.5"/><rect x="88" y="102" width="27" height="17" fill="#e8f4f8" stroke="#aaa" stroke-width="0.5"/><rect x="116" y="102" width="27" height="17" fill="#e8f4f8" stroke="#aaa" stroke-width="0.5"/><rect x="144" y="102" width="27" height="17" fill="#e8f4f8" stroke="#aaa" stroke-width="0.5"/><rect x="172" y="102" width="27" height="17" fill="#e8f4f8" stroke="#aaa" stroke-width="0.5"/><rect x="200" y="102" width="27" height="17" fill="#e8f4f8" stroke="#aaa" stroke-width="0.5"/><rect x="228" y="102" width="27" height="17" fill="#e8f4f8" stroke="#aaa" stroke-width="0.5"/><rect x="256" y="102" width="27" height="17" fill="#e8f4f8" stroke="#aaa" stroke-width="0.5"/><rect x="284" y="102" width="27" height="17" fill="#e8f4f8" stroke="#aaa" stroke-width="0.5"/><rect x="312" y="102" width="27" height="17" fill="#e8f4f8" stroke="#aaa" stroke-width="0.5"/><rect x="60" y="120" width="27" height="17" fill="#e8f4f8" stroke="#aaa" stroke-width="0.5"/><rect x="88" y="120" width="27" height="17" fill="#e8f4f8" stroke="#aaa" stroke-width="0.5"/><rect x="116" y="120" width="27" height="17" fill="#e8f4f8" stroke="#aaa" stroke-width="0.5"/><rect x="144" y="120" width="27" height="17" fill="#e8f4f8" stroke="#aaa" stroke-width="0.5"/><rect x="172" y="120" width="27" height="17" fill="#e8f4f8" stroke="#aaa" stroke-width="0.5"/><rect x="200" y="120" width="27" height="17" fill="#e8f4f8" stroke="#aaa" stroke-width="0.5"/><rect x="228" y="120" width="27" height="17" fill="#e8f4f8" stroke="#aaa" stroke-width="0.5"/><rect x="256" y="120" width="27" height="17" fill="#e8f4f8" stroke="#aaa" stroke-width="0.5"/><rect x="284" y="120" width="27" height="17" fill="#e8f4f8" stroke="#aaa" stroke-width="0.5"/><rect x="312" y="120" width="27" height="17" fill="#e8f4f8" stroke="#aaa" stroke-width="0.5"/><rect x="60" y="138" width="27" height="17" fill="#e8f4f8" stroke="#aaa" stroke-width="0.5"/><rect x="88" y="138" width="27" height="17" fill="#e8f4f8" stroke="#aaa" stroke-width="0.5"/><rect x="116" y="138" width="27" height="17" fill="#e8f4f8" stroke="#aaa" stroke-width="0.5"/><rect x="144" y="138" width="27" height="17" fill="#e8f4f8" stroke="#aaa" stroke-width="0.5"/><rect x="172" y="138" width="27" height="17" fill="#e8f4f8" stroke="#aaa" stroke-width="0.5"/><rect x="200" y="138" width="27" height="17" fill="#e8f4f8" stroke="#aaa" stroke-width="0.5"/><rect x="228" y="138" width="27" height="17" fill="#e8f4f8" stroke="#aaa" stroke-width="0.5"/><rect x="256" y="138" width="27" height="17" fill="#e8f4f8" stroke="#aaa" stroke-width="0.5"/><rect x="284" y="138" width="27" height="17" fill="#e8f4f8" stroke="#aaa" stroke-width="0.5"/><rect x="312" y="138" width="27" height="17" fill="#e8f4f8" stroke="#aaa" stroke-width="0.5"/><rect x="60" y="156" width="27" height="17" fill="#e8f4f8" stroke="#aaa" stroke-width="0.5"/><rect x="88" y="156" width="27" height="17" fill="#e8f4f8" stroke="#aaa" stroke-width="0.5"/><rect x="116" y="156" width="27" height="17" fill="#e8f4f8" stroke="#aaa" stroke-width="0.5"/><rect x="144" y="156" width="27" height="17" fill="#e8f4f8" stroke="#aaa" stroke-width="0.5"/><rect x="172" y="156" width="27" height="17" fill="#e8f4f8" stroke="#aaa" stroke-width="0.5"/><rect x="200" y="156" width="27" height="17" fill="#e8f4f8" stroke="#aaa" stroke-width="0.5"/><rect x="228" y="156" width="27" height="17" fill="#e8f4f8" stroke="#aaa" stroke-width="0.5"/><rect x="256" y="156" width="27" height="17" fill="#e8f4f8" stroke="#aaa" stroke-width="0.5"/><rect x="284" y="156" width="27" height="17" fill="#e8f4f8" stroke="#aaa" stroke-width="0.5"/><rect x="312" y="156" width="27" height="17" fill="#e8f4f8" stroke="#aaa" stroke-width="0.5"/><rect x="60" y="174" width="27" height="17" fill="#e8f4f8" stroke="#aaa" stroke-width="0.5"/><rect x="88" y="174" width="27" height="17" fill="#e8f4f8" stroke="#aaa" stroke-width="0.5"/><rect x="116" y="174" width="27" height="17" fill="#e8f4f8" stroke="#aaa" stroke-width="0.5"/><rect x="144" y="174" width="27" height="17" fill="#e8f4f8" stroke="#aaa" stroke-width="0.5"/><rect x="172" y="174" width="27" height="17" fill="#e8f4f8" stroke="#aaa" stroke-width="0.5"/><rect x="200" y="174" width="27" height="17" fill="#e8f4f8" stroke="#aaa" stroke-width="0.5"/><rect x="228" y="174" width="27" height="17" fill="#e8f4f8" stroke="#aaa" stroke-width="0.5"/><rect x="256" y="174" width="27" height="17" fill="#e8f4f8" stroke="#aaa" stroke-width="0.5"/><rect x="284" y="174" width="27" height="17" fill="#e8f4f8" stroke="#aaa" stroke-width="0.5"/><rect x="312" y="174" width="27" height="17" fill="#e8f4f8" stroke="#aaa" stroke-width="0.5"/><rect x="60" y="192" width="27" height="17" fill="#e8f4f8" stroke="#aaa" stroke-width="0.5"/><rect x="88" y="192" width="27" height="17" fill="#e8f4f8" stroke="#aaa" stroke-width="0.5"/><rect x="116" y="192" width="27" height="17" fill="#e8f4f8" stroke="#aaa" stroke-width="0.5"/><rect x="144" y="192" width="27" height="17" fill="#e8f4f8" stroke="#aaa" stroke-width="0.5"/><rect x="172" y="192" width="27" height="17" fill="#e8f4f8" stroke="#aaa" stroke-width="0.5"/><rect x="200" y="192" width="27" height="17" fill="#e8f4f8" stroke="#aaa" stroke-width="0.5"/><rect x="228" y="192" width="27" height="17" fill="#e8f4f8" stroke="#aaa" stroke-width="0.5"/><rect x="256" y="192" width="27" height="17" fill="#e8f4f8" stroke="#aaa" stroke-width="0.5"/><rect x="284" y="192" width="27" height="17" fill="#e8f4f8" stroke="#aaa" stroke-width="0.5"/><rect x="312" y="192" width="27" height="17" fill="#e8f4f8" stroke="#aaa" stroke-width="0.5"/>
  <text x="200" y="225" text-anchor="middle" font-size="13" font-family="sans-serif" fill="#333" font-weight="bold">0.3×0.2=0.06</text>
</svg>