<svg xmlns="http://www.w3.org/2000/svg" xmlns="http://www.w3.org/2000/svg" viewBox="0 0 400 240" style="background:#f8f9fa;border-radius:12px">
  <text x="200" y="18" text-anchor="middle" font-size="14" font-family="sans-serif" fill="#555">235的倍数特征</text>
  <rect x="60" y="30" width="27" height="59" fill="#d4edda" stroke="#aaa" stroke-width="0.5"/><rect x="88" y="30" width="27" height="59" fill="#e8f4f8" stroke="#aaa" stroke-width="0.5"/><rect x="116" y="30" width="27" height="59" fill="#d4edda" stroke="#aaa" stroke-width="0.5"/><rect x="144" y="30" width="27" height="59" fill="#e8f4f8" stroke="#aaa" stroke-width="0.5"/><rect x="172" y="30" width="27" height="59" fill="#d4edda" stroke="#aaa" stroke-width="0.5"/><rect x="200" y="30" width="27" height="59" fill="#e8f4f8" stroke="#aaa" stroke-width="0.5"/><rect x="228" y="30" width="27" height="59" fill="#d4edda" stroke="#aaa" stroke-width="0.5"/><rect x="256" y="30" width="27" height="59" fill="#e8f4f8" stroke="#aaa" stroke-width="0.5"/><rect x="284" y="30" width="27" height="59" fill="#d4edda" stroke="#aaa" stroke-width="0.5"/><rect x="312" y="30" width="27" height="59" fill="#e8f4f8" stroke="#aaa" stroke-width="0.5"/><rect x="60" y="90" width="27" height="59" fill="#d4edda" stroke="#aaa" stroke-width="0.5"/><rect x="88" y="90" width="27" height="59" fill="#e8f4f8" stroke="#aaa" stroke-width="0.5"/><rect x="116" y="90" width="27" height="59" fill="#d4edda" stroke="#aaa" stroke-width="0.5"/><rect x="144" y="90" width="27" height="59" fill="#e8f4f8" stroke="#aaa" stroke-width="0.5"/><rect x="172" y="90" width="27" height="59" fill="#d4edda" stroke="#aaa" stroke-width="0.5"/><rect x="200" y="90" width="27" height="59" fill="#e8f4f8" stroke="#aaa" stroke-width="0.5"/><rect x="228" y="90" width="27" height="59" fill="#d4edda" stroke="#aaa" stroke-width="0.5"/><rect x="256" y="90" width="27" height="59" fill="#e8f4f8" stroke="#aaa" stroke-width="0.5"/><rect x="284" y="90" width="27" height="59" fill="#d4edda" stroke="#aaa" stroke-width="0.5"/><rect x="312" y="90" width="27" height="59" fill="#e8f4f8" stroke="#aaa" stroke-width="0.5"/><rect x="60" y="150" width="27" height="59" fill="#d4edda" stroke="#aaa" stroke-width="0.5"/><rect x="88" y="150" width="27" height="59" fill="#e8f4f8" stroke="#aaa" stroke-width="0.5"/><rect x="116" y="150" width="27" height="59" fill="#d4edda" stroke="#aaa" stroke-width="0.5"/><rect x="144" y="150" width="27" height="59" fill="#e8f4f8" stroke="#aaa" stroke-width="0.5"/><rect x="172" y="150" width="27" height="59" fill="#d4edda" stroke="#aaa" stroke-width="0.5"/><rect x="200" y="150" width="27" height="59" fill="#e8f4f8" stroke="#aaa" stroke-width="0.5"/><rect x="228" y="150" width="27" height="59" fill="#d4edda" stroke="#aaa" stroke-width="0.5"/><rect x="256" y="150" width="27" height="59" fill="#e8f4f8" stroke="#aaa" stroke-width="0.5"/><rect x="284" y="150" width="27" height="59" fill="#d4edda" stroke="#aaa" stroke-width="0.5"/><rect x="312" y="150" width="27" height="59" fill="#e8f4f8" stroke="#aaa" stroke-width="0.5"/>
  <text x="200" y="225" text-anchor="middle" font-size="13" font-family="sans-serif" fill="#333" font-weight="bold">2的倍数个位02468</text>
</svg>