<svg xmlns="http://www.w3.org/2000/svg" xmlns="http://www.w3.org/2000/svg" viewBox="0 0 400 240" style="background:#f8f9fa;border-radius:12px">
  <text x="200" y="18" text-anchor="middle" font-size="14" font-family="sans-serif" fill="#555">分数的基本性质</text>
  <path d="M70,110 L70.0,155.0 A45,45 0 0,1 70.0,65.0 Z" fill="#d4edda" stroke="#aaa" stroke-width="0.5"/><path d="M70,110 L70.0,65.0 A45,45 0 0,1 69.99999999999999,155.0 Z" fill="#e8f4f8" stroke="#aaa" stroke-width="0.5"/><path d="M200,110 L200.0,155.0 A45,45 0 0,1 245.0,110.0 Z" fill="#d4edda" stroke="#aaa" stroke-width="0.5"/><path d="M200,110 L245.0,110.0 A45,45 0 0,1 200.0,65.0 Z" fill="#d4edda" stroke="#aaa" stroke-width="0.5"/><path d="M200,110 L200.0,65.0 A45,45 0 0,1 155.0,109.99999999999999 Z" fill="#e8f4f8" stroke="#aaa" stroke-width="0.5"/><path d="M200,110 L155.0,109.99999999999999 A45,45 0 0,1 200.0,155.0 Z" fill="#e8f4f8" stroke="#aaa" stroke-width="0.5"/><path d="M330,110 L330.0,155.0 A45,45 0 0,1 361.8198051533946,141.81980515339464 Z" fill="#d4edda" stroke="#aaa" stroke-width="0.5"/><path d="M330,110 L361.8198051533946,141.81980515339464 A45,45 0 0,1 375.0,110.0 Z" fill="#d4edda" stroke="#aaa" stroke-width="0.5"/><path d="M330,110 L375.0,110.0 A45,45 0 0,1 361.81980515339467,78.18019484660536 Z" fill="#d4edda" stroke="#aaa" stroke-width="0.5"/><path d="M330,110 L361.81980515339467,78.18019484660536 A45,45 0 0,1 330.0,65.0 Z" fill="#d4edda" stroke="#aaa" stroke-width="0.5"/><path d="M330,110 L330.0,65.0 A45,45 0 0,1 298.1801948466054,78.18019484660536 Z" fill="#e8f4f8" stroke="#aaa" stroke-width="0.5"/><path d="M330,110 L298.1801948466054,78.18019484660536 A45,45 0 0,1 285.0,109.99999999999999 Z" fill="#e8f4f8" stroke="#aaa" stroke-width="0.5"/><path d="M330,110 L285.0,109.99999999999999 A45,45 0 0,1 298.18019484660533,141.81980515339464 Z" fill="#e8f4f8" stroke="#aaa" stroke-width="0.5"/><path d="M330,110 L298.18019484660533,141.81980515339464 A45,45 0 0,1 330.0,155.0 Z" fill="#e8f4f8" stroke="#aaa" stroke-width="0.5"/>
  <text x="200" y="225" text-anchor="middle" font-size="13" font-family="sans-serif" fill="#333" font-weight="bold">1/2=2/4=4/8</text>
</svg>