<svg xmlns="http://www.w3.org/2000/svg" xmlns="http://www.w3.org/2000/svg" viewBox="0 0 400 240" style="background:#f8f9fa;border-radius:12px">
  <text x="200" y="18" text-anchor="middle" font-size="14" font-family="sans-serif" fill="#555">分数的意义</text>
  <path d="M200,115 L200.0,185.0 A70,70 0 0,1 249.49747468305833,164.49747468305833 Z" fill="#d4edda" stroke="#aaa" stroke-width="0.5"/><path d="M200,115 L249.49747468305833,164.49747468305833 A70,70 0 0,1 270.0,115.0 Z" fill="#d4edda" stroke="#aaa" stroke-width="0.5"/><path d="M200,115 L270.0,115.0 A70,70 0 0,1 249.49747468305833,65.50252531694167 Z" fill="#d4edda" stroke="#aaa" stroke-width="0.5"/><path d="M200,115 L249.49747468305833,65.50252531694167 A70,70 0 0,1 200.0,45.0 Z" fill="#e8f4f8" stroke="#aaa" stroke-width="0.5"/><path d="M200,115 L200.0,45.0 A70,70 0 0,1 150.50252531694167,65.50252531694167 Z" fill="#e8f4f8" stroke="#aaa" stroke-width="0.5"/><path d="M200,115 L150.50252531694167,65.50252531694167 A70,70 0 0,1 130.0,114.99999999999999 Z" fill="#e8f4f8" stroke="#aaa" stroke-width="0.5"/><path d="M200,115 L130.0,114.99999999999999 A70,70 0 0,1 150.50252531694167,164.49747468305833 Z" fill="#e8f4f8" stroke="#aaa" stroke-width="0.5"/><path d="M200,115 L150.50252531694167,164.49747468305833 A70,70 0 0,1 199.99999999999997,185.0 Z" fill="#e8f4f8" stroke="#aaa" stroke-width="0.5"/>
  <text x="200" y="225" text-anchor="middle" font-size="13" font-family="sans-serif" fill="#333" font-weight="bold">3/8=单位1的3份</text>
</svg>