<svg xmlns="http://www.w3.org/2000/svg" xmlns="http://www.w3.org/2000/svg" viewBox="0 0 400 240" style="background:#f8f9fa;border-radius:12px">
  <text x="200" y="18" text-anchor="middle" font-size="14" font-family="sans-serif" fill="#555">不规则图形面积估算</text>
  <rect x="60" y="30" width="45" height="29" fill="#d4edda" stroke="#aaa" stroke-width="0.5"/><rect x="106" y="30" width="45" height="29" fill="#e8f4f8" stroke="#aaa" stroke-width="0.5"/><rect x="152" y="30" width="45" height="29" fill="#d4edda" stroke="#aaa" stroke-width="0.5"/><rect x="198" y="30" width="45" height="29" fill="#d4edda" stroke="#aaa" stroke-width="0.5"/><rect x="244" y="30" width="45" height="29" fill="#d4edda" stroke="#aaa" stroke-width="0.5"/><rect x="290" y="30" width="45" height="29" fill="#e8f4f8" stroke="#aaa" stroke-width="0.5"/><rect x="60" y="60" width="45" height="29" fill="#e8f4f8" stroke="#aaa" stroke-width="0.5"/><rect x="106" y="60" width="45" height="29" fill="#e8f4f8" stroke="#aaa" stroke-width="0.5"/><rect x="152" y="60" width="45" height="29" fill="#d4edda" stroke="#aaa" stroke-width="0.5"/><rect x="198" y="60" width="45" height="29" fill="#e8f4f8" stroke="#aaa" stroke-width="0.5"/><rect x="244" y="60" width="45" height="29" fill="#e8f4f8" stroke="#aaa" stroke-width="0.5"/><rect x="290" y="60" width="45" height="29" fill="#d4edda" stroke="#aaa" stroke-width="0.5"/><rect x="60" y="90" width="45" height="29" fill="#e8f4f8" stroke="#aaa" stroke-width="0.5"/><rect x="106" y="90" width="45" height="29" fill="#d4edda" stroke="#aaa" stroke-width="0.5"/><rect x="152" y="90" width="45" height="29" fill="#e8f4f8" stroke="#aaa" stroke-width="0.5"/><rect x="198" y="90" width="45" height="29" fill="#d4edda" stroke="#aaa" stroke-width="0.5"/><rect x="244" y="90" width="45" height="29" fill="#d4edda" stroke="#aaa" stroke-width="0.5"/><rect x="290" y="90" width="45" height="29" fill="#d4edda" stroke="#aaa" stroke-width="0.5"/><rect x="60" y="120" width="45" height="29" fill="#d4edda" stroke="#aaa" stroke-width="0.5"/><rect x="106" y="120" width="45" height="29" fill="#e8f4f8" stroke="#aaa" stroke-width="0.5"/><rect x="152" y="120" width="45" height="29" fill="#e8f4f8" stroke="#aaa" stroke-width="0.5"/><rect x="198" y="120" width="45" height="29" fill="#d4edda" stroke="#aaa" stroke-width="0.5"/><rect x="244" y="120" width="45" height="29" fill="#e8f4f8" stroke="#aaa" stroke-width="0.5"/><rect x="290" y="120" width="45" height="29" fill="#e8f4f8" stroke="#aaa" stroke-width="0.5"/><rect x="60" y="150" width="45" height="29" fill="#d4edda" stroke="#aaa" stroke-width="0.5"/><rect x="106" y="150" width="45" height="29" fill="#e8f4f8" stroke="#aaa" stroke-width="0.5"/><rect x="152" y="150" width="45" height="29" fill="#d4edda" stroke="#aaa" stroke-width="0.5"/><rect x="198" y="150" width="45" height="29" fill="#e8f4f8" stroke="#aaa" stroke-width="0.5"/><rect x="244" y="150" width="45" height="29" fill="#d4edda" stroke="#aaa" stroke-width="0.5"/><rect x="290" y="150" width="45" height="29" fill="#d4edda" stroke="#aaa" stroke-width="0.5"/><rect x="60" y="180" width="45" height="29" fill="#e8f4f8" stroke="#aaa" stroke-width="0.5"/><rect x="106" y="180" width="45" height="29" fill="#d4edda" stroke="#aaa" stroke-width="0.5"/><rect x="152" y="180" width="45" height="29" fill="#e8f4f8" stroke="#aaa" stroke-width="0.5"/><rect x="198" y="180" width="45" height="29" fill="#e8f4f8" stroke="#aaa" stroke-width="0.5"/><rect x="244" y="180" width="45" height="29" fill="#d4edda" stroke="#aaa" stroke-width="0.5"/><rect x="290" y="180" width="45" height="29" fill="#e8f4f8" stroke="#aaa" stroke-width="0.5"/>
  <text x="200" y="225" text-anchor="middle" font-size="13" font-family="sans-serif" fill="#333" font-weight="bold">数格法</text>
</svg>