<svg xmlns="http://www.w3.org/2000/svg" xmlns="http://www.w3.org/2000/svg" viewBox="0 0 400 240" style="background:#f8f9fa;border-radius:12px">
  <text x="200" y="18" text-anchor="middle" font-size="14" font-family="sans-serif" fill="#555">质数与合数</text>
  <rect x="60" y="40" width="30" height="30" fill="#d4edda" stroke="#aaa" stroke-width="0.5" rx="3"/><rect x="94" y="40" width="30" height="30" fill="#d4edda" stroke="#aaa" stroke-width="0.5" rx="3"/><rect x="128" y="40" width="30" height="30" fill="#d4edda" stroke="#aaa" stroke-width="0.5" rx="3"/><rect x="162" y="40" width="30" height="30" fill="#d4edda" stroke="#aaa" stroke-width="0.5" rx="3"/><rect x="60" y="74" width="30" height="30" fill="#d4edda" stroke="#aaa" stroke-width="0.5" rx="3"/><rect x="94" y="74" width="30" height="30" fill="#d4edda" stroke="#aaa" stroke-width="0.5" rx="3"/><rect x="128" y="74" width="30" height="30" fill="#d4edda" stroke="#aaa" stroke-width="0.5" rx="3"/><rect x="162" y="74" width="30" height="30" fill="#d4edda" stroke="#aaa" stroke-width="0.5" rx="3"/><rect x="60" y="108" width="30" height="30" fill="#d4edda" stroke="#aaa" stroke-width="0.5" rx="3"/><rect x="94" y="108" width="30" height="30" fill="#d4edda" stroke="#aaa" stroke-width="0.5" rx="3"/><rect x="128" y="108" width="30" height="30" fill="#d4edda" stroke="#aaa" stroke-width="0.5" rx="3"/><rect x="162" y="108" width="30" height="30" fill="#d4edda" stroke="#aaa" stroke-width="0.5" rx="3"/>
  <text x="200" y="225" text-anchor="middle" font-size="13" font-family="sans-serif" fill="#333" font-weight="bold">质数=数字原子</text>
</svg>