<svg xmlns="http://www.w3.org/2000/svg" xmlns="http://www.w3.org/2000/svg" viewBox="0 0 400 240" style="background:#f8f9fa;border-radius:12px">
  <text x="200" y="18" text-anchor="middle" font-size="14" font-family="sans-serif" fill="#555">可能性</text>
  <path d="M200,115 L200.0,185.0 A70,70 0 0,1 260.6217782649107,150.0 Z" fill="#d4edda" stroke="#aaa" stroke-width="0.5"/><path d="M200,115 L260.6217782649107,150.0 A70,70 0 0,1 260.6217782649107,80.00000000000001 Z" fill="#d4edda" stroke="#aaa" stroke-width="0.5"/><path d="M200,115 L260.6217782649107,80.00000000000001 A70,70 0 0,1 200.0,45.0 Z" fill="#e8f4f8" stroke="#aaa" stroke-width="0.5"/><path d="M200,115 L200.0,45.0 A70,70 0 0,1 139.3782217350893,79.99999999999997 Z" fill="#e8f4f8" stroke="#aaa" stroke-width="0.5"/><path d="M200,115 L139.3782217350893,79.99999999999997 A70,70 0 0,1 139.3782217350893,150.0 Z" fill="#e8f4f8" stroke="#aaa" stroke-width="0.5"/><path d="M200,115 L139.3782217350893,150.0 A70,70 0 0,1 199.99999999999997,185.0 Z" fill="#e8f4f8" stroke="#aaa" stroke-width="0.5"/>
  <text x="200" y="225" text-anchor="middle" font-size="13" font-family="sans-serif" fill="#333" font-weight="bold">2/6=1/3</text>
</svg>