<svg xmlns="http://www.w3.org/2000/svg" xmlns="http://www.w3.org/2000/svg" viewBox="0 0 400 240" style="background:#f8f9fa;border-radius:12px">
  <text x="200" y="18" text-anchor="middle" font-size="14" font-family="sans-serif" fill="#555">约分</text>
  <path d="M200,115 L200.0,185.0 A70,70 0 0,1 235.0,175.62177826491072 Z" fill="#d4edda" stroke="#aaa" stroke-width="0.5"/><path d="M200,115 L235.0,175.62177826491072 A70,70 0 0,1 260.6217782649107,150.0 Z" fill="#d4edda" stroke="#aaa" stroke-width="0.5"/><path d="M200,115 L260.6217782649107,150.0 A70,70 0 0,1 270.0,115.0 Z" fill="#d4edda" stroke="#aaa" stroke-width="0.5"/><path d="M200,115 L270.0,115.0 A70,70 0 0,1 260.6217782649107,80.00000000000001 Z" fill="#d4edda" stroke="#aaa" stroke-width="0.5"/><path d="M200,115 L260.6217782649107,80.00000000000001 A70,70 0 0,1 235.0,54.37822173508929 Z" fill="#d4edda" stroke="#aaa" stroke-width="0.5"/><path d="M200,115 L235.0,54.37822173508929 A70,70 0 0,1 200.0,45.0 Z" fill="#d4edda" stroke="#aaa" stroke-width="0.5"/><path d="M200,115 L200.0,45.0 A70,70 0 0,1 165.0,54.3782217350893 Z" fill="#d4edda" stroke="#aaa" stroke-width="0.5"/><path d="M200,115 L165.0,54.3782217350893 A70,70 0 0,1 139.3782217350893,79.99999999999997 Z" fill="#d4edda" stroke="#aaa" stroke-width="0.5"/><path d="M200,115 L139.3782217350893,79.99999999999997 A70,70 0 0,1 130.0,114.99999999999999 Z" fill="#e8f4f8" stroke="#aaa" stroke-width="0.5"/><path d="M200,115 L130.0,114.99999999999999 A70,70 0 0,1 139.3782217350893,150.0 Z" fill="#e8f4f8" stroke="#aaa" stroke-width="0.5"/><path d="M200,115 L139.3782217350893,150.0 A70,70 0 0,1 164.99999999999997,175.6217782649107 Z" fill="#e8f4f8" stroke="#aaa" stroke-width="0.5"/><path d="M200,115 L164.99999999999997,175.6217782649107 A70,70 0 0,1 199.99999999999997,185.0 Z" fill="#e8f4f8" stroke="#aaa" stroke-width="0.5"/>
  <text x="200" y="225" text-anchor="middle" font-size="13" font-family="sans-serif" fill="#333" font-weight="bold">8/12=2/3÷最大公因数</text>
</svg>