<svg xmlns="http://www.w3.org/2000/svg" viewBox="0 0 64 64" role="img" aria-label="Einstein avatar">
  <defs>
    <linearGradient id="bg" x1="10" y1="8" x2="54" y2="58" gradientUnits="userSpaceOnUse">
      <stop offset="0" stop-color="#fff7ed"/>
      <stop offset="1" stop-color="#dbeafe"/>
    </linearGradient>
  </defs>
  <circle cx="32" cy="32" r="31" fill="url(#bg)" stroke="#fed7aa" stroke-width="2"/>
  <path d="M15 27c-3-5 2-11 8-8 2-8 13-10 18-3 7-2 12 4 9 11 5 3 4 11-2 13 1 7-6 12-13 9-5 6-16 4-18-5-7 0-11-9-6-14-2-1-2-2 4-3Z" fill="#f8fafc" stroke="#cbd5e1" stroke-width="1.5" stroke-linejoin="round"/>
  <ellipse cx="32" cy="35" rx="16" ry="17" fill="#f8d7bd"/>
  <path d="M19 33c1-8 6-13 13-13s12 5 13 13c-4-4-8-6-13-6s-9 2-13 6Z" fill="#f8fafc"/>
  <circle cx="25" cy="35" r="4.2" fill="none" stroke="#334155" stroke-width="1.8"/>
  <circle cx="39" cy="35" r="4.2" fill="none" stroke="#334155" stroke-width="1.8"/>
  <path d="M29.3 35h5.4" stroke="#334155" stroke-width="1.6" stroke-linecap="round"/>
  <circle cx="25" cy="35" r="1.2" fill="#1e293b"/>
  <circle cx="39" cy="35" r="1.2" fill="#1e293b"/>
  <path d="M31 35.5c-.8 2-1.1 3.7-.1 5.2" fill="none" stroke="#c08457" stroke-width="1.5" stroke-linecap="round"/>
  <path d="M23 44c4-3 7-3 9-.4 2-2.6 5-2.6 9 .4-5 2.3-13 2.3-18 0Z" fill="#f8fafc" stroke="#cbd5e1" stroke-width="1.2" stroke-linejoin="round"/>
  <path d="M25 50c4 4 10 4 14 0" fill="none" stroke="#7c2d12" stroke-width="1.5" stroke-linecap="round"/>
  <path d="M13 39c-4-2-5-8-1-11M51 39c4-2 5-8 1-11" fill="none" stroke="#cbd5e1" stroke-width="2" stroke-linecap="round"/>
</svg>
