<svg xmlns="http://www.w3.org/2000/svg" viewBox="0 0 64 64" role="img" aria-label="Feynman avatar">
  <defs>
    <linearGradient id="bg" x1="10" y1="8" x2="54" y2="58" gradientUnits="userSpaceOnUse">
      <stop offset="0" stop-color="#ecfeff"/>
      <stop offset="1" stop-color="#fef3c7"/>
    </linearGradient>
  </defs>
  <circle cx="32" cy="32" r="31" fill="url(#bg)" stroke="#bae6fd" stroke-width="2"/>
  <path d="M17 27c0-10 7-17 15-17s15 7 15 17c4 2 5 8 1 12-1 11-8 17-16 17s-15-6-16-17c-4-4-3-10 1-12Z" fill="#f7c59f"/>
  <path d="M17 29c1-12 6-20 16-20 9 0 14 7 15 19-3-4-6-7-11-8-7 5-15 5-20 9Z" fill="#3f2a1d"/>
  <path d="M19 22c5 1 10 0 17-5 4 1 8 5 10 11-1-10-6-18-15-18s-14 6-12 12Z" fill="#5b3824"/>
  <path d="M22 35c2-2 5-2 7 0M36 35c2-2 5-2 7 0" fill="none" stroke="#3f2a1d" stroke-width="1.8" stroke-linecap="round"/>
  <circle cx="26" cy="37" r="1.3" fill="#1e293b"/>
  <circle cx="40" cy="37" r="1.3" fill="#1e293b"/>
  <path d="M32 37c-.8 2-.8 3.7.2 5" fill="none" stroke="#a16207" stroke-width="1.5" stroke-linecap="round"/>
  <path d="M25 47c4 4 11 4 15 0" fill="none" stroke="#7c2d12" stroke-width="1.8" stroke-linecap="round"/>
  <path d="M19 49c7 9 19 10 27 0 0 8-6 12-14 12s-13-4-13-12Z" fill="#1e293b"/>
  <path d="M27 54h10l-5 5-5-5Z" fill="#ffffff"/>
  <path d="M46 47c5 1 8 4 8 8" fill="none" stroke="#ef4444" stroke-width="2.4" stroke-linecap="round"/>
  <circle cx="55" cy="56" r="3.2" fill="#ef4444"/>
  <path d="M10 54c4-4 8-4 12 0M11 58c4-4 8-4 12 0" fill="none" stroke="#0f766e" stroke-width="2" stroke-linecap="round"/>
</svg>
